PathFileType	4	(X/Y/Z)	Walk1_0-155.trc
DataRate	CameraRate	NumFrames	NumMarkers	Units	OrigDataRate	OrigDataStartFrame	OrigNumFrames
30	30	5	22	m	30	135	155
Frame#	Time	Hip			RHip			RKnee			RAnkle			RBigToe			RSmallToe			RHeel			LHip			LKnee			LAnkle			LBigToe			LSmallToe			LHeel			Neck			Head			Nose			RShoulder			RElbow			RWrist			LShoulder			LElbow			LWrist		
		X1	Y1	Z1	X2	Y2	Z2	X3	Y3	Z3	X4	Y4	Z4	X5	Y5	Z5	X6	Y6	Z6	X7	Y7	Z7	X8	Y8	Z8	X9	Y9	Z9	X10	Y10	Z10	X11	Y11	Z11	X12	Y12	Z12	X13	Y13	Z13	X14	Y14	Z14	X15	Y15	Z15	X16	Y16	Z16	X17	Y17	Z17	X18	Y18	Z18	X19	Y19	Z19	X20	Y20	Z20	X21	Y21	Z21	X22	Y22	Z22
136	4.533333333333333	1.7400730733123018	0.8973063757269019	0.3769372958492708	1.7702424787983637	0.8731715285847776	0.4835850045921729	1.9405136838803394	0.5526106482971881	0.4663992117944174	1.9141663861685172	0.1275921328490593	0.4659983254134419	2.14917159458358	0.021081143850956375	0.45653335517287336	2.111263149478453	0.018675976544133492	0.5016215598656366	1.8901120342013376	0.050465461834109555	0.4383333871453463	1.7106134747326822	0.8695079564927045	0.28510178848219003	1.664656477980835	0.5100360235075757	0.2943210904346223	1.6272801978003464	0.10801182222945606	0.33429897771668793	1.8029611667589274	0.02934095845890153	0.30705304596386973	1.76137033166737	0.00812524946132843	0.2289288920194478	1.576504947789432	0.02175793268969689	0.341308071513873	1.6505836735328556	1.5974916428061052	0.3597258000475564	1.7149062327961433	1.8519199511333395	0.3824067522890959	1.8397613838003306	1.6700178232916507	0.36071761959195825	1.6177354201162186	1.4662346070814143	0.5463001800014854	1.6117525833964323	1.1611714365729249	0.6103654757401276	1.6277137928306267	0.9042352541332785	0.6528371128361131	1.6694590075023774	1.4803929702681502	0.20251311587648874	1.7689446708882688	1.18360278431649	0.12746152414635156	1.997973057988117	1.0125196658968363	0.14444757333348907
137	4.566666666666666	1.7796358359922342	0.8884414474562597	0.37664828935029593	1.806809665890569	0.8676122920528463	0.48263865987612176	1.977119675495703	0.4924718639180503	0.49846787408867405	2.019371414688844	0.12757273438047065	0.4812286193469783	2.257098366154027	0.08813936089768201	0.47852944742952136	2.215826564276642	0.0680876802339051	0.519367362373911	2.003066685486005	0.04701275596847639	0.4597022579097405	1.7428195284459573	0.8660402681412777	0.28801296614251176	1.6875849697628091	0.5072948205403245	0.2977338018973344	1.6296942626648494	0.10746692814913239	0.3353678157910492	1.8257527862900464	0.046217553749575764	0.2996896251735534	1.7800765678010282	0.0396566911094221	0.2666678471076006	1.572354601815948	0.026972774229842792	0.34502768708330406	1.6851871879228686	1.5953828568816188	0.3643126017480073	1.7515165819456067	1.8497131990036046	0.3896567951015918	1.8759521587204915	1.6702952670986118	0.34877962840173693	1.653293254893471	1.4670337438041654	0.5512212304180808	1.6323182292063538	1.162696978055309	0.6114507032893356	1.6373687370672412	0.903334729880119	0.6552434806684714	1.7034408464970934	1.4788428594393854	0.20968482462749669	1.8023499580279907	1.1835851076968251	0.12647609847885	2.0413105144951076	1.0180858998395095	0.14786905579608622
138	4.6	1.8123266103604565	0.8845519410339773	0.3779825917944857	1.8394336617935712	0.8593532907775028	0.4793925594067526	1.9566701736528742	0.5122874672871239	0.4702414220831143	2.1058161209416606	0.15116802856867367	0.489395943497912	2.3302602282613085	0.15030471561106365	0.4979170555482296	2.2938545195988786	0.12264145838995767	0.5386570921271653	2.157958254965412	0.04959111030911417	0.4703016408863851	1.778719107207501	0.8577102165127408	0.292503357405664	1.7147472860540862	0.5017798624784129	0.30076723489792323	1.6369770627217828	0.11910353799293898	0.31639151388251535	1.8321756241926994	0.03948847456112678	0.3141010483999249	1.7808906902432535	0.015815583496159108	0.23377892325259622	1.5755168508947306	0.04633680017921053	0.3314764633025961	1.717121546269508	1.588709083386144	0.3659719718109578	1.767270324794728	1.8227253439223317	0.3610396271459167	1.9041371850478723	1.6655569644827972	0.3538824965841591	1.6868378381015063	1.4651083715779227	0.5556461053750045	1.6582460068631906	1.1619754217673124	0.6155379268122214	1.6563170998706434	0.9027483062749293	0.660673072753576	1.737764966773719	1.4723575974139074	0.21425898161438237	1.8336403520758795	1.179127327147765	0.12556422814879054	2.073012794018306	1.0281627384154859	0.1463681451147505
139	4.633333333333334	1.8462247447451712	0.8800332809099641	0.3844327611606579	1.8735601803564135	0.855513294651815	0.4839203873686678	1.9903808245589545	0.5014669020640531	0.4714932447568838	2.165151474017301	0.15066789310958575	0.4931134221341484	2.3744131379404685	0.16398607736748447	0.507585005503351	2.343657881042886	0.12888343570210542	0.5480814495624097	2.1705751815668717	0.03842662990179265	0.46972418729475296	1.8131174713892264	0.8559867839392064	0.29420154899153655	1.7416807961824385	0.5010440083913343	0.3016399385365327	1.6373236115992102	0.11381757074694947	0.33612982641888844	1.8274620161670774	0.036290297318411484	0.31509680089235664	1.7856357496699675	0.03388485878010785	0.2620488164175438	1.5775399987296013	0.04429726195382205	0.3441898568486617	1.7532007624632262	1.5823994006230249	0.3718762323316325	1.7984347265995035	1.8148180778248386	0.3641040430270429	1.9348018457018512	1.6580185953644961	0.3714858639881271	1.7220473579631541	1.457110845397167	0.5633455193343327	1.687758345560203	1.1550971366281197	0.6204517756753883	1.6828032718440262	0.8992594129966871	0.6661563554164973	1.7709586039910696	1.4662831552036655	0.2167045497681646	1.8633963803877243	1.1771584416576268	0.12732666053101066	2.1006782515425058	1.027101281969475	0.14770573924497765
140	4.666666666666667	1.8802000696998624	0.8722085346203386	0.38679705211939747	1.9148443324915672	0.8463010232635472	0.4916414724705173	2.0262369322716136	0.49553687314861644	0.4720887434429061	2.2104671982337716	0.11117049276749728	0.4666964424638855	2.401546312126089	0.14323025519084406	0.5102373945167995	2.3721218104209583	0.10764572186914496	0.5520958879648575	2.185002696815255	0.02938745753344014	0.4703496011500732	1.8537366342600805	0.8455333942173924	0.30210350224263577	1.7697401731354556	0.4961901954945093	0.3030927832868415	1.628323984173044	0.12070314828365	0.3240581588709739	1.8385656140745208	0.036675545607376084	0.3029075423349708	1.7882063075386703	0.03271614754027024	0.2675358311438201	1.5713336328674985	0.053641990619465306	0.3365820491780088	1.7857048455058913	1.5756483574382483	0.37889654002723855	1.879587720413332	1.8030116546763653	0.3494141430790028	1.9689958402940704	1.6541228654233	0.37933777737532376	1.7570047439713647	1.447741524052732	0.570712352278335	1.721390405351424	1.143383354408201	0.6253042084340108	1.7169796383911238	0.8882094783624479	0.6741355523320212	1.8061030025285347	1.4574225898835742	0.2274075242767255	1.8950584301119546	1.1685655489471827	0.13234204576856148	2.1280164188023067	1.016403742791207	0.14684777408190786
